<mxfile host="app.diagrams.net" modified="2024-04-21T11:46:21.034Z" agent="Mozilla/5.0 (Macintosh; Intel Mac OS X 10_15_7) AppleWebKit/537.36 (KHTML, like Gecko) Chrome/124.0.0.0 Safari/537.36" etag="jKMHcxVbA_DuRF5E8_3N" version="24.2.7" type="device">
  <diagram name="Page-1" id="ulT-_PV7ZDztqLS79qqE">
    <mxGraphModel dx="1158" dy="688" grid="1" gridSize="10" guides="1" tooltips="1" connect="1" arrows="1" fold="1" page="1" pageScale="1" pageWidth="827" pageHeight="1169" math="0" shadow="0">
      <root>
        <mxCell id="0" />
        <mxCell id="1" parent="0" />
        <mxCell id="i3RE7HxR8fK-u7yLkR9E-1" value="&lt;font style=&quot;font-size: 13px;&quot;&gt;USERS&lt;/font&gt;" style="rounded=0;whiteSpace=wrap;html=1;" vertex="1" parent="1">
          <mxGeometry x="190" y="200" width="120" height="60" as="geometry" />
        </mxCell>
        <mxCell id="i3RE7HxR8fK-u7yLkR9E-2" value="&lt;font style=&quot;font-size: 13px;&quot;&gt;CONTACTS&lt;/font&gt;" style="rounded=0;whiteSpace=wrap;html=1;" vertex="1" parent="1">
          <mxGeometry x="820" y="195" width="120" height="60" as="geometry" />
        </mxCell>
        <mxCell id="i3RE7HxR8fK-u7yLkR9E-3" value="user_id" style="ellipse;whiteSpace=wrap;html=1;" vertex="1" parent="1">
          <mxGeometry x="10" y="160" width="90" height="50" as="geometry" />
        </mxCell>
        <mxCell id="i3RE7HxR8fK-u7yLkR9E-4" value="name" style="ellipse;whiteSpace=wrap;html=1;" vertex="1" parent="1">
          <mxGeometry x="160" y="50" width="90" height="50" as="geometry" />
        </mxCell>
        <mxCell id="i3RE7HxR8fK-u7yLkR9E-5" value="name" style="ellipse;whiteSpace=wrap;html=1;" vertex="1" parent="1">
          <mxGeometry x="610" y="140" width="90" height="50" as="geometry" />
        </mxCell>
        <mxCell id="i3RE7HxR8fK-u7yLkR9E-6" value="contact_id" style="ellipse;whiteSpace=wrap;html=1;" vertex="1" parent="1">
          <mxGeometry x="590" y="200" width="90" height="50" as="geometry" />
        </mxCell>
        <mxCell id="i3RE7HxR8fK-u7yLkR9E-7" value="phone" style="ellipse;whiteSpace=wrap;html=1;" vertex="1" parent="1">
          <mxGeometry x="750" y="40" width="90" height="50" as="geometry" />
        </mxCell>
        <mxCell id="i3RE7HxR8fK-u7yLkR9E-8" value="isActive" style="ellipse;whiteSpace=wrap;html=1;" vertex="1" parent="1">
          <mxGeometry x="270" y="40" width="90" height="50" as="geometry" />
        </mxCell>
        <mxCell id="i3RE7HxR8fK-u7yLkR9E-9" value="role" style="ellipse;whiteSpace=wrap;html=1;" vertex="1" parent="1">
          <mxGeometry x="10" y="230" width="90" height="50" as="geometry" />
        </mxCell>
        <mxCell id="i3RE7HxR8fK-u7yLkR9E-10" value="work" style="ellipse;whiteSpace=wrap;html=1;" vertex="1" parent="1">
          <mxGeometry x="940" y="70" width="90" height="50" as="geometry" />
        </mxCell>
        <mxCell id="i3RE7HxR8fK-u7yLkR9E-11" value="description" style="ellipse;whiteSpace=wrap;html=1;" vertex="1" parent="1">
          <mxGeometry x="850" y="20" width="90" height="50" as="geometry" />
        </mxCell>
        <mxCell id="i3RE7HxR8fK-u7yLkR9E-12" value="profile_photo" style="ellipse;whiteSpace=wrap;html=1;" vertex="1" parent="1">
          <mxGeometry x="380" y="150" width="90" height="50" as="geometry" />
        </mxCell>
        <mxCell id="i3RE7HxR8fK-u7yLkR9E-13" value="about" style="ellipse;whiteSpace=wrap;html=1;" vertex="1" parent="1">
          <mxGeometry x="410" y="210" width="90" height="50" as="geometry" />
        </mxCell>
        <mxCell id="i3RE7HxR8fK-u7yLkR9E-14" value="email" style="ellipse;whiteSpace=wrap;html=1;" vertex="1" parent="1">
          <mxGeometry x="1020" y="130" width="90" height="50" as="geometry" />
        </mxCell>
        <mxCell id="i3RE7HxR8fK-u7yLkR9E-15" value="nick_name" style="ellipse;whiteSpace=wrap;html=1;" vertex="1" parent="1">
          <mxGeometry x="670" y="90" width="90" height="50" as="geometry" />
        </mxCell>
        <mxCell id="i3RE7HxR8fK-u7yLkR9E-16" value="profile_photo" style="ellipse;whiteSpace=wrap;html=1;" vertex="1" parent="1">
          <mxGeometry x="1060" y="200" width="90" height="50" as="geometry" />
        </mxCell>
        <mxCell id="i3RE7HxR8fK-u7yLkR9E-17" value="password" style="ellipse;whiteSpace=wrap;html=1;" vertex="1" parent="1">
          <mxGeometry x="350" y="90" width="90" height="50" as="geometry" />
        </mxCell>
        <mxCell id="i3RE7HxR8fK-u7yLkR9E-18" value="email" style="ellipse;whiteSpace=wrap;html=1;" vertex="1" parent="1">
          <mxGeometry x="70" y="90" width="90" height="50" as="geometry" />
        </mxCell>
        <mxCell id="i3RE7HxR8fK-u7yLkR9E-20" value="" style="endArrow=none;html=1;rounded=0;entryX=0;entryY=1;entryDx=0;entryDy=0;exitX=1;exitY=0.5;exitDx=0;exitDy=0;" edge="1" parent="1" source="i3RE7HxR8fK-u7yLkR9E-9" target="i3RE7HxR8fK-u7yLkR9E-1">
          <mxGeometry width="50" height="50" relative="1" as="geometry">
            <mxPoint x="130" y="290" as="sourcePoint" />
            <mxPoint x="180" y="240" as="targetPoint" />
          </mxGeometry>
        </mxCell>
        <mxCell id="i3RE7HxR8fK-u7yLkR9E-21" value="" style="endArrow=none;html=1;rounded=0;entryX=0;entryY=0.75;entryDx=0;entryDy=0;exitX=1;exitY=1;exitDx=0;exitDy=0;" edge="1" parent="1" source="i3RE7HxR8fK-u7yLkR9E-3" target="i3RE7HxR8fK-u7yLkR9E-1">
          <mxGeometry width="50" height="50" relative="1" as="geometry">
            <mxPoint x="90" y="190" as="sourcePoint" />
            <mxPoint x="180" y="195" as="targetPoint" />
          </mxGeometry>
        </mxCell>
        <mxCell id="i3RE7HxR8fK-u7yLkR9E-22" value="" style="endArrow=none;html=1;rounded=0;entryX=0;entryY=0;entryDx=0;entryDy=0;exitX=1;exitY=1;exitDx=0;exitDy=0;" edge="1" parent="1" source="i3RE7HxR8fK-u7yLkR9E-18" target="i3RE7HxR8fK-u7yLkR9E-1">
          <mxGeometry width="50" height="50" relative="1" as="geometry">
            <mxPoint x="140" y="130" as="sourcePoint" />
            <mxPoint x="243" y="172" as="targetPoint" />
          </mxGeometry>
        </mxCell>
        <mxCell id="i3RE7HxR8fK-u7yLkR9E-23" value="" style="endArrow=none;html=1;rounded=0;entryX=0.25;entryY=0;entryDx=0;entryDy=0;exitX=0.5;exitY=1;exitDx=0;exitDy=0;" edge="1" parent="1" source="i3RE7HxR8fK-u7yLkR9E-4" target="i3RE7HxR8fK-u7yLkR9E-1">
          <mxGeometry width="50" height="50" relative="1" as="geometry">
            <mxPoint x="207" y="110" as="sourcePoint" />
            <mxPoint x="250" y="177" as="targetPoint" />
          </mxGeometry>
        </mxCell>
        <mxCell id="i3RE7HxR8fK-u7yLkR9E-24" value="" style="endArrow=none;html=1;rounded=0;entryX=0.5;entryY=0;entryDx=0;entryDy=0;exitX=0;exitY=1;exitDx=0;exitDy=0;" edge="1" parent="1" source="i3RE7HxR8fK-u7yLkR9E-8" target="i3RE7HxR8fK-u7yLkR9E-1">
          <mxGeometry width="50" height="50" relative="1" as="geometry">
            <mxPoint x="295" y="100" as="sourcePoint" />
            <mxPoint x="310" y="200" as="targetPoint" />
          </mxGeometry>
        </mxCell>
        <mxCell id="i3RE7HxR8fK-u7yLkR9E-25" value="" style="endArrow=none;html=1;rounded=0;entryX=0.75;entryY=0;entryDx=0;entryDy=0;exitX=0;exitY=0.5;exitDx=0;exitDy=0;" edge="1" parent="1" source="i3RE7HxR8fK-u7yLkR9E-17" target="i3RE7HxR8fK-u7yLkR9E-1">
          <mxGeometry width="50" height="50" relative="1" as="geometry">
            <mxPoint x="303" y="100" as="sourcePoint" />
            <mxPoint x="270" y="217" as="targetPoint" />
          </mxGeometry>
        </mxCell>
        <mxCell id="i3RE7HxR8fK-u7yLkR9E-26" value="" style="endArrow=none;html=1;rounded=0;entryX=1;entryY=0;entryDx=0;entryDy=0;exitX=0;exitY=0.5;exitDx=0;exitDy=0;" edge="1" parent="1" source="i3RE7HxR8fK-u7yLkR9E-12" target="i3RE7HxR8fK-u7yLkR9E-1">
          <mxGeometry width="50" height="50" relative="1" as="geometry">
            <mxPoint x="360" y="170" as="sourcePoint" />
            <mxPoint x="290" y="255" as="targetPoint" />
          </mxGeometry>
        </mxCell>
        <mxCell id="i3RE7HxR8fK-u7yLkR9E-27" value="" style="endArrow=none;html=1;rounded=0;entryX=1;entryY=0.5;entryDx=0;entryDy=0;exitX=0;exitY=0;exitDx=0;exitDy=0;" edge="1" parent="1" source="i3RE7HxR8fK-u7yLkR9E-13" target="i3RE7HxR8fK-u7yLkR9E-1">
          <mxGeometry width="50" height="50" relative="1" as="geometry">
            <mxPoint x="390" y="205" as="sourcePoint" />
            <mxPoint x="320" y="230" as="targetPoint" />
          </mxGeometry>
        </mxCell>
        <mxCell id="i3RE7HxR8fK-u7yLkR9E-29" value="" style="endArrow=none;html=1;rounded=0;exitX=1;exitY=0.5;exitDx=0;exitDy=0;entryX=0;entryY=0.5;entryDx=0;entryDy=0;" edge="1" parent="1" source="i3RE7HxR8fK-u7yLkR9E-6" target="i3RE7HxR8fK-u7yLkR9E-2">
          <mxGeometry width="50" height="50" relative="1" as="geometry">
            <mxPoint x="700" y="260" as="sourcePoint" />
            <mxPoint x="750" y="210" as="targetPoint" />
          </mxGeometry>
        </mxCell>
        <mxCell id="i3RE7HxR8fK-u7yLkR9E-30" value="" style="endArrow=none;html=1;rounded=0;exitX=1;exitY=0.5;exitDx=0;exitDy=0;entryX=0;entryY=0.5;entryDx=0;entryDy=0;" edge="1" parent="1" source="i3RE7HxR8fK-u7yLkR9E-2" target="i3RE7HxR8fK-u7yLkR9E-16">
          <mxGeometry width="50" height="50" relative="1" as="geometry">
            <mxPoint x="940" y="224.5" as="sourcePoint" />
            <mxPoint x="1080" y="224.5" as="targetPoint" />
          </mxGeometry>
        </mxCell>
        <mxCell id="i3RE7HxR8fK-u7yLkR9E-31" value="" style="endArrow=none;html=1;rounded=0;exitX=1;exitY=0.5;exitDx=0;exitDy=0;entryX=0;entryY=0.25;entryDx=0;entryDy=0;" edge="1" parent="1" source="i3RE7HxR8fK-u7yLkR9E-5" target="i3RE7HxR8fK-u7yLkR9E-2">
          <mxGeometry width="50" height="50" relative="1" as="geometry">
            <mxPoint x="690" y="235" as="sourcePoint" />
            <mxPoint x="830" y="235" as="targetPoint" />
          </mxGeometry>
        </mxCell>
        <mxCell id="i3RE7HxR8fK-u7yLkR9E-32" value="" style="endArrow=none;html=1;rounded=0;exitX=1;exitY=1;exitDx=0;exitDy=0;entryX=0;entryY=0;entryDx=0;entryDy=0;" edge="1" parent="1" source="i3RE7HxR8fK-u7yLkR9E-15" target="i3RE7HxR8fK-u7yLkR9E-2">
          <mxGeometry width="50" height="50" relative="1" as="geometry">
            <mxPoint x="730" y="145" as="sourcePoint" />
            <mxPoint x="850" y="190" as="targetPoint" />
          </mxGeometry>
        </mxCell>
        <mxCell id="i3RE7HxR8fK-u7yLkR9E-33" value="" style="endArrow=none;html=1;rounded=0;exitX=0.5;exitY=1;exitDx=0;exitDy=0;entryX=0.25;entryY=0;entryDx=0;entryDy=0;" edge="1" parent="1" source="i3RE7HxR8fK-u7yLkR9E-7" target="i3RE7HxR8fK-u7yLkR9E-2">
          <mxGeometry width="50" height="50" relative="1" as="geometry">
            <mxPoint x="757" y="143" as="sourcePoint" />
            <mxPoint x="830" y="205" as="targetPoint" />
          </mxGeometry>
        </mxCell>
        <mxCell id="i3RE7HxR8fK-u7yLkR9E-34" value="" style="endArrow=none;html=1;rounded=0;exitX=0.5;exitY=1;exitDx=0;exitDy=0;entryX=0.5;entryY=0;entryDx=0;entryDy=0;" edge="1" parent="1" source="i3RE7HxR8fK-u7yLkR9E-11" target="i3RE7HxR8fK-u7yLkR9E-2">
          <mxGeometry width="50" height="50" relative="1" as="geometry">
            <mxPoint x="805" y="100" as="sourcePoint" />
            <mxPoint x="860" y="205" as="targetPoint" />
          </mxGeometry>
        </mxCell>
        <mxCell id="i3RE7HxR8fK-u7yLkR9E-35" value="" style="endArrow=none;html=1;rounded=0;exitX=0;exitY=1;exitDx=0;exitDy=0;entryX=0.75;entryY=0;entryDx=0;entryDy=0;" edge="1" parent="1" source="i3RE7HxR8fK-u7yLkR9E-10" target="i3RE7HxR8fK-u7yLkR9E-2">
          <mxGeometry width="50" height="50" relative="1" as="geometry">
            <mxPoint x="905" y="80" as="sourcePoint" />
            <mxPoint x="890" y="205" as="targetPoint" />
          </mxGeometry>
        </mxCell>
        <mxCell id="i3RE7HxR8fK-u7yLkR9E-36" value="" style="endArrow=none;html=1;rounded=0;exitX=0;exitY=0.5;exitDx=0;exitDy=0;entryX=1;entryY=0.25;entryDx=0;entryDy=0;" edge="1" parent="1" source="i3RE7HxR8fK-u7yLkR9E-14" target="i3RE7HxR8fK-u7yLkR9E-2">
          <mxGeometry width="50" height="50" relative="1" as="geometry">
            <mxPoint x="963" y="123" as="sourcePoint" />
            <mxPoint x="920" y="205" as="targetPoint" />
          </mxGeometry>
        </mxCell>
        <mxCell id="i3RE7HxR8fK-u7yLkR9E-37" value="has" style="rhombus;whiteSpace=wrap;html=1;" vertex="1" parent="1">
          <mxGeometry x="510" y="450" width="80" height="80" as="geometry" />
        </mxCell>
        <mxCell id="i3RE7HxR8fK-u7yLkR9E-40" value="" style="endArrow=none;html=1;rounded=0;entryX=0.5;entryY=1;entryDx=0;entryDy=0;exitX=0;exitY=0.5;exitDx=0;exitDy=0;" edge="1" parent="1" source="i3RE7HxR8fK-u7yLkR9E-37" target="i3RE7HxR8fK-u7yLkR9E-1">
          <mxGeometry width="50" height="50" relative="1" as="geometry">
            <mxPoint x="470" y="590" as="sourcePoint" />
            <mxPoint x="520" y="540" as="targetPoint" />
          </mxGeometry>
        </mxCell>
        <mxCell id="i3RE7HxR8fK-u7yLkR9E-42" value="&lt;font style=&quot;font-size: 16px;&quot;&gt;1&lt;/font&gt;" style="edgeLabel;html=1;align=center;verticalAlign=middle;resizable=0;points=[];" vertex="1" connectable="0" parent="i3RE7HxR8fK-u7yLkR9E-40">
          <mxGeometry x="0.0391" y="-3" relative="1" as="geometry">
            <mxPoint as="offset" />
          </mxGeometry>
        </mxCell>
        <mxCell id="i3RE7HxR8fK-u7yLkR9E-41" value="" style="endArrow=none;html=1;rounded=0;entryX=0.5;entryY=1;entryDx=0;entryDy=0;exitX=1;exitY=0.5;exitDx=0;exitDy=0;" edge="1" parent="1" source="i3RE7HxR8fK-u7yLkR9E-37" target="i3RE7HxR8fK-u7yLkR9E-2">
          <mxGeometry width="50" height="50" relative="1" as="geometry">
            <mxPoint x="470" y="590" as="sourcePoint" />
            <mxPoint x="520" y="540" as="targetPoint" />
          </mxGeometry>
        </mxCell>
        <mxCell id="i3RE7HxR8fK-u7yLkR9E-43" value="&lt;font style=&quot;font-size: 15px;&quot;&gt;n&lt;/font&gt;" style="edgeLabel;html=1;align=center;verticalAlign=middle;resizable=0;points=[];" vertex="1" connectable="0" parent="i3RE7HxR8fK-u7yLkR9E-41">
          <mxGeometry x="0.1742" relative="1" as="geometry">
            <mxPoint as="offset" />
          </mxGeometry>
        </mxCell>
      </root>
    </mxGraphModel>
  </diagram>
</mxfile>
